<?xml version="1.0" standalone="no"?>
<!DOCTYPE svg PUBLIC "-//W3C//DTD SVG 20010904//EN"
 "http://www.w3.org/TR/2001/REC-SVG-20010904/DTD/svg10.dtd">
<svg version="1.0" xmlns="http://www.w3.org/2000/svg"
 width="512.000000pt" height="512.000000pt" viewBox="0 0 512.000000 512.000000"
 preserveAspectRatio="xMidYMid meet">
<metadata>
Created by potrace 1.16, written by Peter Selinger 2001-2019
</metadata>
<g transform="translate(0.000000,512.000000) scale(0.100000,-0.100000)"
fill="#000000" stroke="none">
<path d="M26 4019 l-26 -20 0 -1284 0 -1284 26 -20 c25 -20 39 -21 258 -21
l231 0 30 -51 c41 -70 141 -161 217 -198 35 -17 99 -39 143 -48 215 -44 450
58 565 245 l32 52 127 0 127 0 22 -39 c58 -103 172 -195 296 -239 98 -35 250
-36 346 -3 124 44 224 120 286 222 l37 59 143 0 c153 0 185 7 203 47 17 37 13
62 -14 88 -23 24 -29 25 -154 25 l-130 0 1 75 0 75 466 0 467 0 0 -75 0 -75
-207 0 c-195 0 -209 -1 -228 -20 -33 -33 -30 -85 6 -118 24 -21 31 -22 252
-22 l227 0 24 -42 c105 -185 337 -293 556 -259 145 23 308 132 379 254 l28 47
153 0 c139 0 155 2 179 21 l26 20 0 654 0 653 -121 369 c-67 202 -132 390
-146 416 -50 100 -156 175 -277 198 -32 6 -120 9 -196 7 -119 -3 -141 -6 -159
-22 -28 -26 -29 -88 -1 -116 18 -18 33 -20 163 -20 152 0 202 -9 255 -45 32
-22 82 -81 82 -97 0 -4 -214 -9 -476 -10 l-476 -3 -24 -28 -24 -28 0 -334 c0
-332 0 -334 23 -359 19 -22 89 -42 587 -166 311 -78 582 -145 603 -151 l37
-10 0 -239 0 -240 -102 0 -103 0 -29 50 c-60 100 -171 191 -281 232 -73 26
-226 35 -308 18 -134 -27 -288 -140 -347 -252 l-25 -48 -102 0 -103 0 0 855 0
855 209 0 210 0 20 26 c35 45 26 95 -20 119 -22 12 -77 15 -268 15 -255 0
-281 -4 -300 -47 -8 -17 -11 -286 -11 -923 l0 -900 -75 0 -75 0 -2 943 -3 942
-32 67 c-55 116 -152 192 -279 218 -32 7 -211 10 -492 8 -490 -3 -467 0 -479
-70 -4 -30 -1 -41 20 -62 l26 -26 434 0 c469 0 494 -2 561 -54 19 -14 46 -49
60 -78 l26 -52 0 -609 0 -608 -452 3 c-502 3 -481 1 -556 72 -49 45 -62 77
-73 171 -13 115 -40 184 -99 248 -94 103 -195 137 -411 137 l-116 0 -18 48
c-51 135 -163 227 -307 252 -36 7 -138 10 -235 8 -207 -4 -213 -7 -213 -100
l0 -58 -133 0 c-120 0 -135 -2 -155 -20 -33 -31 -30 -92 4 -119 24 -19 40 -21
155 -21 l129 0 0 -75 0 -75 -133 0 c-127 0 -135 -1 -155 -23 -32 -34 -30 -89
4 -116 24 -19 40 -21 155 -21 l129 0 0 -55 c0 -42 5 -60 21 -76 20 -20 29 -20
247 -17 221 3 229 4 282 29 102 48 191 153 214 253 l7 28 147 -4 c158 -4 186
-12 245 -67 45 -41 68 -96 77 -187 11 -109 46 -186 113 -252 29 -28 77 -63
107 -79 l55 -28 483 -3 482 -3 0 -234 0 -235 -178 0 -178 0 -16 33 c-47 97
-175 206 -293 249 -73 26 -226 35 -308 18 -134 -27 -288 -140 -347 -252 l-25
-48 -127 0 -126 0 -30 53 c-34 60 -127 152 -192 189 -75 44 -172 68 -269 68
-197 0 -359 -86 -462 -246 l-42 -64 -178 0 -179 0 0 1010 0 1010 805 0 c792 0
805 0 825 20 31 31 27 93 -6 119 -27 21 -32 21 -874 21 -842 0 -847 0 -874
-21z m1074 -783 c88 -46 133 -118 134 -213 0 -51 -5 -70 -30 -109 -59 -96
-133 -124 -326 -124 l-98 0 0 236 0 236 143 -4 c112 -3 149 -8 177 -22z m3774
-264 c92 -275 96 -291 96 -375 0 -48 -2 -87 -5 -87 -5 0 -968 240 -1047 261
l-38 10 0 239 0 240 449 0 449 0 96 -288z m-3710 -996 c74 -36 156 -118 192
-193 26 -51 29 -69 29 -153 0 -84 -3 -102 -28 -152 -60 -123 -187 -218 -310
-233 -69 -9 -163 14 -236 58 -143 86 -219 264 -176 413 36 127 118 218 244
271 80 34 203 29 285 -11z m1252 -3 c151 -78 234 -233 213 -399 -26 -206 -241
-364 -441 -324 -167 32 -286 153 -318 321 -32 170 79 356 252 420 83 31 214
23 294 -18z m2019 0 c206 -107 278 -361 155 -551 -73 -114 -187 -175 -325
-176 -70 0 -90 4 -147 31 -122 57 -202 158 -228 287 -29 141 43 305 169 385
76 49 123 61 226 58 78 -3 98 -8 150 -34z m-3970 -348 l0 -75 -157 0 -158 0 0
75 0 75 158 0 157 0 0 -75z m1240 0 l0 -75 -77 0 -78 0 0 75 0 75 78 0 77 0 0
-75z m3265 0 l0 -75 -80 0 -80 0 0 75 0 75 80 0 80 0 0 -75z"/>
<path d="M915 1846 c-144 -63 -188 -248 -88 -365 85 -100 218 -116 324 -39 80
58 113 191 70 283 -23 49 -74 99 -123 119 -45 19 -142 20 -183 2z m142 -168
c38 -36 29 -89 -19 -114 -35 -18 -61 -11 -88 23 -26 34 -25 59 5 88 30 31 71
32 102 3z"/>
<path d="M2140 1836 c-136 -69 -167 -256 -61 -369 90 -98 261 -96 346 5 45 53
57 94 53 174 -3 62 -8 79 -35 116 -66 92 -202 126 -303 74z m160 -156 c26 -26
26 -81 0 -105 -26 -24 -76 -23 -100 1 -46 47 -15 124 50 124 17 0 39 -9 50
-20z"/>
<path d="M4162 1839 c-112 -56 -160 -202 -105 -314 42 -83 117 -128 214 -129
57 0 74 4 115 30 27 16 62 49 79 72 25 37 30 55 33 115 3 64 0 78 -25 127 -41
78 -101 114 -197 118 -57 2 -79 -1 -114 -19z m155 -161 c42 -40 21 -109 -38
-123 -38 -9 -82 31 -82 75 0 63 73 92 120 48z"/>
<path d="M2517 3719 c-10 -6 -56 -86 -102 -180 -127 -252 -121 -279 62 -279
57 0 103 -2 103 -5 0 -3 -22 -50 -50 -105 -27 -55 -50 -113 -50 -129 0 -65 92
-97 137 -48 12 12 55 91 97 175 65 130 77 160 74 195 -4 59 -42 77 -160 77
l-87 0 50 105 c27 58 49 117 49 131 0 54 -74 92 -123 63z"/>
<path d="M3749 2411 c-18 -14 -24 -29 -24 -61 0 -68 24 -80 155 -80 131 0 155
12 155 80 0 68 -24 80 -155 80 -91 0 -111 -3 -131 -19z"/>
</g>
</svg>
