<?xml version="1.0" standalone="no"?>
<!DOCTYPE svg PUBLIC "-//W3C//DTD SVG 20010904//EN"
 "http://www.w3.org/TR/2001/REC-SVG-20010904/DTD/svg10.dtd">
<svg version="1.0" xmlns="http://www.w3.org/2000/svg"
 width="512.000000pt" height="512.000000pt" viewBox="0 0 512.000000 512.000000"
 preserveAspectRatio="xMidYMid meet">
<metadata>
Created by potrace 1.16, written by Peter Selinger 2001-2019
</metadata>
<g transform="translate(0.000000,512.000000) scale(0.100000,-0.100000)"
fill="#000000" stroke="none">
<path d="M82 5103 c-19 -9 -44 -32 -58 -52 -23 -33 -24 -44 -24 -174 0 -152 6
-175 60 -220 17 -15 46 -29 65 -33 l35 -6 0 -841 0 -842 -80 80 -80 80 0
-1548 0 -1547 1637 0 c1601 0 1637 0 1618 19 -11 10 -513 483 -1115 1051 -602
568 -1104 1041 -1115 1051 -19 19 6 19 1128 19 l1147 0 0 -728 0 -728 28 -55
c31 -61 92 -113 152 -129 26 -7 276 -10 752 -8 711 3 713 3 754 25 53 29 110
93 124 140 8 27 10 367 8 1179 l-3 1141 -30 49 c-19 30 -49 60 -79 79 l-49 30
-414 3 -413 3 0 244 0 244 378 3 377 3 53 28 c67 35 122 90 153 153 22 45 24
63 27 214 3 151 1 171 -19 225 -30 80 -104 154 -182 183 -55 21 -74 22 -422
22 l-365 0 0 79 0 79 33 6 c52 10 93 41 117 90 20 42 22 58 18 175 -3 122 -4
129 -31 164 -55 73 134 67 -2119 67 -1862 0 -2036 -2 -2066 -17z m4038 -233
l0 -80 -1975 0 -1975 0 0 80 0 80 1975 0 1975 0 0 -80z m-160 -330 l0 -80
-718 0 -717 0 -309 -206 c-169 -113 -304 -209 -300 -214 5 -4 145 -98 311
-209 l303 -201 715 0 715 0 0 -245 0 -245 -700 0 -700 0 0 -85 0 -85 376 0
c339 0 376 -2 370 -16 -3 -9 -6 -45 -6 -80 l0 -64 -370 0 -370 0 0 -85 0 -85
370 0 370 0 0 -160 0 -160 -1242 0 -1243 0 -238 226 -237 225 0 925 0 924
1810 0 1810 0 0 -80z m490 -330 l0 -80 -900 0 -900 0 0 80 0 80 900 0 900 0 0
-80z m410 58 c70 -36 90 -85 90 -219 0 -121 -8 -150 -53 -197 -39 -40 -80 -52
-184 -52 l-83 0 0 245 0 245 93 0 c76 0 101 -4 137 -22z m-2394 -375 c-2 -2
-56 30 -120 73 -70 47 -113 81 -107 87 5 5 58 41 117 81 l109 73 3 -155 c1
-85 1 -157 -2 -159z m1984 -13 l0 -80 -900 0 -900 0 0 80 0 80 900 0 900 0 0
-80z m471 -939 l29 -29 0 -1095 c0 -1092 0 -1094 -21 -1121 l-20 -26 -695 0
c-678 0 -694 0 -714 20 -11 11 -22 30 -25 42 -3 13 -4 511 -3 1106 l3 1084 28
24 28 24 680 0 681 0 29 -29z m-3401 -1531 c696 -656 1276 -1203 1290 -1216
l25 -24 -1333 0 -1332 0 0 80 0 80 85 0 85 0 0 85 0 85 -85 0 -85 0 0 80 0 80
85 0 85 0 0 85 0 85 -85 0 -85 0 0 80 0 80 85 0 85 0 0 85 0 85 -85 0 -85 0 0
80 0 80 85 0 85 0 0 85 0 85 -85 0 -85 0 0 80 0 80 85 0 85 0 0 85 0 85 -85 0
-85 0 0 80 0 80 85 0 85 0 0 85 0 85 -85 0 -85 0 0 267 0 267 43 -40 c23 -23
611 -578 1307 -1234z"/>
<path d="M1160 4118 c-1 -7 -34 -256 -73 -553 l-73 -540 -114 143 -114 142
-148 0 -148 0 0 -90 0 -90 108 0 107 -1 210 -264 c116 -146 212 -265 215 -265
3 0 46 305 95 678 l90 677 213 3 212 2 0 85 0 85 -290 0 c-225 0 -290 -3 -290
-12z"/>
<path d="M1482 3638 l-62 -63 177 -177 178 -178 -178 -178 -177 -177 62 -63
63 -62 177 177 178 178 178 -178 177 -177 63 62 62 63 -177 177 -178 178 178
178 177 177 -62 63 -63 62 -177 -177 -178 -178 -178 178 -177 177 -63 -62z"/>
<path d="M2560 3385 l0 -85 620 0 620 0 0 85 0 85 -620 0 -620 0 0 -85z"/>
<path d="M3630 2475 l0 -335 580 0 580 0 0 335 0 335 -580 0 -580 0 0 -335z
m990 5 l0 -160 -410 0 -410 0 0 160 0 160 410 0 410 0 0 -160z"/>
<path d="M3790 1905 l0 -85 -80 0 -80 0 0 -85 0 -85 80 0 80 0 0 -85 0 -85 90
0 90 0 0 85 0 85 80 0 80 0 0 85 0 85 -80 0 -80 0 0 85 0 85 -90 0 -90 0 0
-85z"/>
<path d="M4290 1735 l0 -85 250 0 250 0 0 85 0 85 -250 0 -250 0 0 -85z"/>
<path d="M3630 1240 l0 -90 250 0 250 0 0 90 0 90 -250 0 -250 0 0 -90z"/>
<path d="M4365 1240 l-59 -60 54 -55 54 -55 -52 -53 -52 -53 58 -57 c32 -31
62 -57 67 -57 5 0 31 21 57 47 l48 47 48 -47 c26 -26 52 -47 58 -47 5 0 36 27
69 60 l59 60 -52 53 -52 52 52 53 53 52 -62 62 -63 63 -53 -53 -53 -52 -49 50
c-27 27 -54 50 -60 50 -6 0 -37 -27 -70 -60z"/>
<path d="M3630 910 l0 -90 250 0 250 0 0 90 0 90 -250 0 -250 0 0 -90z"/>
<path d="M490 1217 l0 -727 766 0 c421 0 764 4 762 8 -2 7 -1392 1322 -1501
1421 l-27 24 0 -726z m705 -182 c204 -191 374 -352 380 -357 5 -4 -197 -8
-448 -8 l-457 0 0 432 0 433 78 -76 c42 -42 244 -232 447 -424z"/>
</g>
</svg>
