<?xml version="1.0" standalone="no"?>
<!DOCTYPE svg PUBLIC "-//W3C//DTD SVG 20010904//EN"
 "http://www.w3.org/TR/2001/REC-SVG-20010904/DTD/svg10.dtd">
<svg version="1.0" xmlns="http://www.w3.org/2000/svg"
 width="512.000000pt" height="512.000000pt" viewBox="0 0 512.000000 512.000000"
 preserveAspectRatio="xMidYMid meet">
<metadata>
Created by potrace 1.16, written by Peter Selinger 2001-2019
</metadata>
<g transform="translate(0.000000,512.000000) scale(0.100000,-0.100000)"
fill="#000000" stroke="none">
<path d="M3239 4941 c-65 -26 -113 -64 -153 -126 -24 -35 -45 -55 -63 -59 -57
-14 -210 -97 -274 -148 -132 -107 -231 -240 -290 -392 -33 -85 -59 -198 -59
-255 0 -38 0 -38 -46 -44 -57 -6 -117 -46 -159 -106 -26 -37 -30 -53 -34 -121
-2 -66 1 -87 19 -125 23 -48 90 -112 128 -122 l23 -5 -27 -35 c-66 -86 -83
-221 -43 -328 39 -105 162 -195 264 -195 l35 0 0 -98 c0 -120 24 -224 79 -337
42 -89 129 -202 196 -255 24 -19 44 -42 44 -50 0 -8 -59 -58 -132 -111 l-132
-96 -225 -48 c-124 -26 -242 -54 -264 -61 -21 -8 -40 -14 -42 -14 -2 0 -5 303
-6 673 l-3 672 -29 60 c-38 77 -114 153 -191 191 l-60 29 -675 0 -675 0 -60
-29 c-77 -38 -153 -114 -191 -191 l-29 -60 0 -1355 0 -1355 29 -60 c38 -77
114 -153 191 -191 l60 -29 675 0 675 0 60 29 c77 38 153 114 191 191 l29 60 3
581 3 582 57 30 c40 21 113 42 246 71 104 23 191 39 194 37 2 -3 17 -150 32
-328 15 -178 31 -331 35 -341 4 -10 16 -22 26 -27 44 -24 82 -11 259 90 96 55
177 96 181 92 4 -4 43 -110 88 -235 l81 -229 0 -304 0 -304 80 0 80 0 0 304 0
304 81 229 c45 125 84 231 88 235 4 4 85 -37 181 -92 189 -108 230 -120 269
-81 25 25 26 28 56 401 14 172 27 315 28 316 5 5 343 -47 377 -57 140 -45 251
-183 271 -337 4 -37 8 -327 9 -644 l0 -578 80 0 80 0 0 638 c0 527 -3 647 -15
692 -49 185 -202 341 -385 394 -30 9 -147 29 -259 45 l-203 30 -129 85 c-71
47 -129 92 -128 99 0 6 19 28 42 47 74 61 146 153 192 245 60 119 85 222 85
347 l0 98 35 0 c102 0 225 90 264 195 40 107 23 242 -43 328 l-27 35 23 5 c37
10 104 73 127 120 25 51 29 159 7 211 -31 76 -126 146 -196 146 -29 0 -30 2
-30 44 0 63 -43 221 -84 311 -47 101 -107 184 -197 271 -107 102 -220 172
-327 205 -35 10 -50 23 -78 65 -65 98 -154 144 -277 144 -45 -1 -89 -8 -118
-19z m201 -174 c69 -46 75 -67 78 -309 l4 -218 -162 0 -162 0 4 218 c3 197 5
220 24 252 30 51 78 80 134 80 32 0 58 -7 80 -23z m-376 -673 c16 -11 74 -14
298 -14 265 0 279 1 298 20 19 19 20 33 20 250 l0 229 28 -12 c15 -7 51 -25
80 -41 l52 -29 0 -209 0 -208 80 0 79 0 3 128 3 127 42 -70 c50 -83 91 -201
100 -285 l6 -60 -793 0 -793 0 6 60 c9 84 50 202 100 285 l42 70 3 -127 3
-128 79 0 80 0 0 208 0 208 28 16 c15 9 50 28 77 43 l50 26 5 -236 c5 -220 6
-238 24 -251z m1300 -363 c46 -43 31 -112 -26 -130 -18 -5 -245 -25 -504 -43
l-472 -32 -473 32 c-261 19 -489 38 -507 43 -76 24 -67 132 13 152 11 3 453 4
982 3 l961 -1 26 -24z m-1266 -357 c251 -17 273 -17 525 0 144 9 288 20 321
23 l58 6 -5 -349 c-5 -380 -8 -406 -67 -528 -65 -136 -201 -261 -342 -316
-328 -127 -698 40 -823 373 -35 95 -45 206 -45 536 l0 284 58 -6 c31 -3 175
-14 320 -23z m-538 -174 c0 -149 0 -150 -22 -150 -64 0 -128 76 -128 150 0 74
64 150 128 150 22 0 22 -1 22 -150z m1678 130 c96 -59 96 -201 0 -260 -18 -11
-43 -20 -55 -20 -23 0 -23 1 -23 150 0 149 0 150 23 150 12 0 37 -9 55 -20z
m-2468 -76 c54 -25 113 -87 131 -140 12 -32 14 -260 14 -1314 0 -1412 4 -1318
-67 -1396 -75 -81 -54 -79 -728 -79 -674 0 -653 -2 -728 79 -71 78 -67 -16
-67 1396 0 1403 -4 1318 63 1392 41 45 77 66 135 78 23 4 303 8 622 7 566 -2
581 -3 625 -23z m1404 -1236 c106 -27 317 -22 416 10 35 12 66 20 67 18 2 -2
-29 -121 -69 -265 l-72 -261 -156 0 -156 0 -69 248 c-37 136 -70 256 -73 266
-4 16 -2 18 14 12 10 -4 55 -17 98 -28z m744 -146 c28 -19 52 -42 52 -51 0 -9
-9 -139 -22 -288 -22 -271 -22 -273 -42 -260 -12 8 -68 40 -124 72 -57 32
-106 64 -109 71 -4 10 53 228 123 472 l16 53 26 -17 c15 -10 51 -33 80 -52z
m-934 -200 c37 -134 65 -249 63 -256 -3 -7 -52 -39 -109 -71 -56 -32 -112 -64
-124 -72 -20 -13 -20 -11 -43 263 -12 152 -21 278 -18 280 28 28 152 112 158
107 3 -5 36 -117 73 -251z m444 -424 c-22 -62 -45 -128 -51 -145 -6 -18 -13
-33 -17 -33 -4 0 -11 15 -17 33 -6 17 -29 83 -51 145 l-41 112 109 0 109 0
-41 -112z"/>
<path d="M2914 3326 c-30 -30 -34 -40 -34 -86 0 -46 4 -56 34 -86 30 -30 40
-34 86 -34 46 0 56 4 86 34 30 30 34 40 34 86 0 46 -4 56 -34 86 -30 30 -40
34 -86 34 -46 0 -56 -4 -86 -34z"/>
<path d="M3634 3326 c-30 -30 -34 -40 -34 -86 0 -46 4 -56 34 -86 30 -30 40
-34 86 -34 46 0 56 4 86 34 30 30 34 40 34 86 0 46 -4 56 -34 86 -30 30 -40
34 -86 34 -46 0 -56 -4 -86 -34z"/>
<path d="M3495 2829 c-44 -10 -146 -21 -227 -25 l-148 -7 0 -79 0 -80 183 4
c131 3 202 10 252 23 39 10 71 19 72 20 4 3 -40 149 -46 156 -3 3 -42 -2 -86
-12z"/>
<path d="M500 3020 c-19 -19 -20 -33 -20 -340 0 -307 1 -321 20 -340 20 -20
33 -20 620 -20 587 0 600 0 620 20 19 19 20 33 20 340 0 307 -1 321 -20 340
-20 20 -33 20 -620 20 -587 0 -600 0 -620 -20z m1100 -340 l0 -200 -480 0
-480 0 0 200 0 200 480 0 480 0 0 -200z"/>
<path d="M560 2080 l0 -80 80 0 80 0 0 80 0 80 -80 0 -80 0 0 -80z"/>
<path d="M880 2080 l0 -80 80 0 80 0 0 80 0 80 -80 0 -80 0 0 -80z"/>
<path d="M1200 2080 l0 -80 80 0 80 0 0 80 0 80 -80 0 -80 0 0 -80z"/>
<path d="M1520 2080 l0 -80 80 0 80 0 0 80 0 80 -80 0 -80 0 0 -80z"/>
<path d="M957 1824 c-215 -52 -411 -249 -462 -465 -22 -95 -20 -249 6 -334 11
-39 24 -90 28 -114 7 -38 23 -58 134 -168 110 -111 130 -127 168 -134 24 -4
76 -17 114 -28 87 -25 245 -28 330 -6 185 47 339 171 419 337 24 51 49 117 55
146 18 89 14 238 -10 317 -11 39 -24 90 -28 114 -7 38 -23 58 -134 168 -110
111 -130 127 -168 134 -24 4 -75 17 -114 28 -83 25 -247 27 -338 5z m252 -160
c22 -5 -5 -35 -259 -289 -190 -190 -287 -280 -292 -272 -14 21 -9 172 8 228
68 231 312 381 543 333z m246 -134 l50 -50 -333 -333 -332 -332 -52 53 -53 52
330 330 c181 182 332 330 335 330 3 0 28 -23 55 -50z m135 -327 c0 -139 -48
-252 -148 -345 -94 -89 -194 -128 -323 -128 -43 0 -85 3 -94 6 -13 5 48 72
266 290 190 190 286 279 291 271 4 -7 8 -49 8 -94z"/>
<path d="M480 560 l0 -80 80 0 80 0 0 80 0 80 -80 0 -80 0 0 -80z"/>
<path d="M1600 560 l0 -80 80 0 80 0 0 80 0 80 -80 0 -80 0 0 -80z"/>
<path d="M2320 600 l0 -440 80 0 80 0 0 440 0 440 -80 0 -80 0 0 -440z"/>
<path d="M2960 960 l0 -80 80 0 80 0 0 80 0 80 -80 0 -80 0 0 -80z"/>
<path d="M4240 840 l0 -200 -320 0 -320 0 0 -80 0 -80 320 0 320 0 0 -160 0
-160 80 0 80 0 0 440 0 440 -80 0 -80 0 0 -200z"/>
<path d="M2960 240 l0 -80 80 0 80 0 0 80 0 80 -80 0 -80 0 0 -80z"/>
</g>
</svg>
