<?xml version="1.0" standalone="no"?>
<!DOCTYPE svg PUBLIC "-//W3C//DTD SVG 20010904//EN"
 "http://www.w3.org/TR/2001/REC-SVG-20010904/DTD/svg10.dtd">
<svg version="1.0" xmlns="http://www.w3.org/2000/svg"
 width="512.000000pt" height="512.000000pt" viewBox="0 0 512.000000 512.000000"
 preserveAspectRatio="xMidYMid meet">
<metadata>
Created by potrace 1.16, written by Peter Selinger 2001-2019
</metadata>
<g transform="translate(0.000000,512.000000) scale(0.100000,-0.100000)"
fill="#000000" stroke="none">
<path d="M160 4459 c-60 -27 -107 -74 -136 -134 -21 -43 -24 -65 -24 -162 0
-129 11 -153 73 -153 61 0 71 16 78 129 8 109 19 137 66 168 26 17 123 18
1808 18 1685 0 1782 -1 1808 -18 61 -40 62 -44 65 -359 l3 -288 -191 0 c-214
0 -238 -5 -304 -68 -79 -76 -76 -43 -76 -714 l0 -598 -85 0 c-99 0 -125 -15
-125 -75 0 -60 26 -75 125 -75 l85 0 0 -225 0 -225 -1543 2 c-1455 3 -1544 4
-1570 21 -57 37 -62 56 -65 249 l-4 178 1385 0 1386 0 20 26 c27 34 27 64 0
98 l-20 26 -1385 0 -1384 0 0 758 c0 752 0 759 -20 777 -12 11 -36 19 -55 19
-19 0 -43 -8 -55 -19 -20 -18 -20 -22 -20 -1049 l0 -1031 24 -50 c29 -60 76
-107 136 -134 44 -20 63 -21 643 -21 l597 0 0 -225 0 -225 -233 0 c-265 0
-267 -1 -267 -77 0 -79 -96 -73 1127 -73 1043 0 1091 1 1106 18 23 26 22 94
-1 115 -16 15 -49 17 -250 17 l-232 0 0 225 0 225 340 0 340 0 0 -352 c0 -397
1 -398 76 -470 75 -71 35 -68 821 -68 796 0 748 -4 825 76 73 76 68 -3 68
1158 l0 1045 -26 20 c-15 12 -37 21 -49 21 -12 0 -34 -9 -49 -21 l-26 -20 0
-875 0 -874 -745 0 -745 0 0 1108 c0 702 4 1120 10 1143 15 55 47 78 118 85
l62 7 0 -102 c0 -111 8 -138 57 -182 51 -47 70 -49 498 -49 428 0 447 2 498
49 49 44 57 71 57 182 l0 102 57 -6 c109 -11 132 -51 132 -229 1 -114 2 -117
27 -137 15 -12 37 -21 49 -21 12 0 34 9 49 21 l26 20 0 157 c0 179 -9 210 -76
274 -73 69 -64 68 -554 68 l-440 0 0 308 c0 287 -2 310 -21 352 -27 60 -74
107 -134 136 l-50 24 -1820 0 c-1809 0 -1820 -1 -1865 -21z m4470 -1020 c0
-108 36 -99 -405 -99 -441 0 -405 -9 -405 99 l0 61 405 0 405 0 0 -61z m-2130
-2134 l0 -225 -475 0 -475 0 0 225 0 225 475 0 475 0 0 -225z m2468 -366 c-6
-82 -27 -118 -79 -136 -49 -17 -1279 -17 -1328 0 -52 18 -73 54 -79 136 l-5
71 748 0 748 0 -5 -71z"/>
<path d="M1908 4005 c-20 -11 -50 -61 -118 -195 -50 -99 -94 -180 -99 -180
-49 0 -372 -55 -389 -66 -52 -34 -77 -116 -51 -167 6 -12 72 -83 146 -158
l135 -137 -32 -189 -33 -190 19 -38 c26 -53 64 -78 116 -78 35 0 76 17 211 87
l167 88 167 -88 c135 -70 176 -87 211 -87 52 0 90 25 116 78 l19 38 -32 190
-33 190 135 136 c74 75 140 146 146 158 26 51 1 133 -51 167 -17 11 -340 66
-389 66 -5 0 -49 81 -99 180 -100 197 -112 210 -192 210 -24 -1 -55 -7 -70
-15z m150 -334 c49 -101 81 -156 100 -170 20 -14 70 -25 177 -41 83 -11 158
-24 168 -28 15 -6 -3 -28 -102 -125 -87 -86 -123 -128 -130 -154 -8 -27 -4
-68 15 -176 13 -78 27 -152 30 -165 4 -21 -11 -16 -151 57 -89 46 -169 81
-185 81 -16 0 -96 -35 -185 -81 -140 -72 -155 -78 -150 -57 3 13 16 87 29 166
18 106 22 152 15 177 -7 23 -46 69 -130 152 -99 97 -117 119 -102 125 10 3 85
16 167 28 110 16 157 27 178 42 20 14 51 66 100 169 40 82 75 149 78 149 4 0
39 -67 78 -149z"/>
<path d="M3777 2782 c-23 -26 -22 -94 1 -115 17 -15 56 -17 350 -17 l331 0 20
26 c12 15 21 37 21 49 0 12 -9 34 -21 49 l-20 26 -333 0 c-310 0 -334 -1 -349
-18z"/>
<path d="M3780 2500 c-28 -28 -27 -90 1 -116 20 -18 45 -19 488 -22 256 -1
476 0 489 3 59 14 80 80 41 129 l-20 26 -490 0 c-476 0 -490 -1 -509 -20z"/>
<path d="M3780 2220 c-31 -31 -27 -93 6 -119 26 -21 36 -21 506 -21 l479 0 24
25 c16 15 25 36 25 55 0 19 -9 40 -25 55 l-24 25 -486 0 c-472 0 -486 -1 -505
-20z"/>
<path d="M3786 1939 c-34 -27 -37 -88 -4 -119 21 -20 33 -20 505 -20 l484 0
24 25 c16 15 25 36 25 55 0 19 -9 40 -25 55 l-24 25 -479 0 c-470 0 -480 0
-506 -21z"/>
<path d="M3786 1659 c-33 -26 -37 -88 -6 -119 19 -19 33 -20 509 -20 l490 0
20 26 c35 45 26 95 -20 119 -23 13 -105 15 -497 15 -460 0 -470 0 -496 -21z"/>
</g>
</svg>
