<?xml version="1.0" standalone="no"?>
<!DOCTYPE svg PUBLIC "-//W3C//DTD SVG 20010904//EN"
 "http://www.w3.org/TR/2001/REC-SVG-20010904/DTD/svg10.dtd">
<svg version="1.0" xmlns="http://www.w3.org/2000/svg"
 width="512.000000pt" height="512.000000pt" viewBox="0 0 512.000000 512.000000"
 preserveAspectRatio="xMidYMid meet">
<metadata>
Created by potrace 1.16, written by Peter Selinger 2001-2019
</metadata>
<g transform="translate(0.000000,512.000000) scale(0.100000,-0.100000)"
fill="#000000" stroke="none">
<path d="M669 5106 c-73 -26 -136 -85 -171 -161 l-23 -50 0 -875 0 -875 28
-57 c16 -32 48 -75 73 -97 75 -66 102 -71 396 -71 l258 0 0 -90 0 -90 -417 0
c-274 0 -432 -4 -458 -11 -63 -18 -118 -62 -150 -121 l-30 -53 -3 -991 -2
-991 -45 -17 c-88 -34 -126 -112 -105 -218 26 -136 108 -246 225 -304 60 -29
60 -29 275 -32 209 -3 216 -3 235 18 24 26 25 83 2 108 -16 18 -36 20 -205 24
-204 5 -230 11 -294 67 -37 32 -74 105 -80 156 l-3 30 1610 0 1610 0 -3 -30
c-5 -40 -38 -114 -65 -143 -12 -13 -44 -36 -72 -50 l-50 -27 -1103 -5 c-1078
-5 -1104 -5 -1118 -24 -21 -29 -18 -82 6 -106 20 -20 29 -20 1148 -18 l1127 3
60 29 c119 59 202 171 226 308 11 58 10 72 -5 112 -20 53 -61 91 -116 107
l-40 12 0 189 0 188 313 0 c309 0 315 0 358 23 112 60 156 202 98 318 -25 51
-92 105 -144 118 -24 6 -98 11 -164 11 l-121 0 0 120 0 119 568 3 567 3 50 27
c93 49 154 126 180 223 13 52 15 216 15 1325 0 1403 3 1336 -65 1436 -41 59
-101 105 -168 128 -43 14 -180 16 -1407 16 l-1360 0 0 23 c0 92 -82 210 -175
253 l-50 24 -590 -1 c-456 0 -598 -3 -626 -13z m1207 -162 c15 -11 37 -33 48
-48 21 -27 21 -37 24 -864 2 -934 6 -880 -67 -929 l-34 -23 -554 0 c-610 0
-589 -2 -635 62 l-23 33 0 845 c0 791 1 848 18 873 21 33 57 57 100 67 17 5
271 8 564 7 520 -2 532 -2 559 -23z m2911 -283 c62 -12 110 -49 138 -105 l25
-50 0 -1263 c0 -1384 4 -1302 -58 -1366 -56 -60 -19 -57 -792 -57 l-710 0 0
70 0 70 630 0 c608 0 632 1 669 20 51 26 97 82 110 136 7 28 11 217 11 546 0
548 1 537 -56 558 -29 11 -81 -5 -94 -30 -6 -12 -10 -213 -10 -522 0 -440 -2
-506 -16 -526 l-15 -22 -614 0 -613 0 -4 218 c-3 198 -5 221 -25 257 -27 51
-67 91 -118 119 -40 21 -44 21 -797 24 l-758 2 0 90 0 90 88 0 c54 0 106 6
135 16 60 20 131 84 165 148 l27 51 3 618 3 617 1250 -2 1251 -3 19 -24 c18
-22 19 -45 19 -452 0 -416 1 -430 20 -449 31 -31 93 -27 119 6 21 26 21 37 21
451 0 273 -4 440 -11 467 -13 54 -59 110 -110 136 -37 20 -64 20 -1309 20
l-1270 0 0 75 0 75 1318 0 c724 -1 1336 -5 1359 -9z m-3257 -1831 l0 -90 -70
0 -70 0 0 90 0 90 70 0 70 0 0 -90z m1662 -279 l33 -29 3 -976 2 -976 -1450 0
-1450 0 0 966 c0 884 1 968 17 994 9 16 26 33 37 39 14 6 494 10 1398 10
l1378 1 32 -29z m378 -1011 l0 -120 -90 0 -90 0 0 120 0 120 90 0 90 0 0 -120z
m418 -296 c54 -38 43 -111 -19 -133 -20 -7 -131 -11 -305 -11 l-274 0 0 80 0
80 288 0 c247 0 291 -2 310 -16z"/>
<path d="M850 4797 c-65 -43 -75 -74 -78 -245 -2 -84 -1 -164 2 -178 16 -61
80 -82 130 -43 l26 20 0 155 c0 151 0 154 23 159 12 3 173 4 357 3 l335 -3 3
-642 2 -643 -360 0 -360 0 0 349 0 350 -26 20 c-49 39 -114 18 -129 -41 -3
-13 -5 -181 -3 -374 l3 -351 27 -40 c49 -75 45 -74 502 -71 459 3 438 0 484
89 l22 44 -2 681 -3 681 -28 36 c-52 68 -42 67 -490 67 -403 0 -404 0 -437
-23z"/>
<path d="M1468 4273 c-8 -10 -57 -89 -108 -176 -51 -86 -95 -159 -99 -162 -4
-2 -43 32 -86 76 -71 71 -83 79 -117 79 -50 0 -78 -28 -78 -77 0 -34 10 -47
128 -165 122 -122 130 -128 168 -128 26 0 46 6 56 18 9 9 73 113 142 231 134
227 149 267 108 304 -25 23 -94 22 -114 0z"/>
<path d="M3471 3697 c-15 -7 -77 -103 -168 -257 -79 -135 -151 -256 -160 -269
l-15 -24 -132 132 c-121 121 -134 131 -169 131 -49 0 -77 -28 -77 -77 0 -34
12 -49 178 -216 165 -165 181 -179 215 -180 25 -1 44 6 57 19 22 22 381 629
388 656 7 28 -16 74 -44 87 -31 14 -43 14 -73 -2z"/>
<path d="M655 2431 c-69 -17 -125 -62 -161 -131 -18 -33 -19 -71 -19 -725 0
-690 0 -690 22 -731 29 -54 93 -110 140 -123 51 -14 2233 -15 2284 -1 47 13
114 72 142 124 l22 41 0 680 c0 759 3 728 -70 801 -79 78 -9 74 -1239 73 -600
-1 -1104 -4 -1121 -8z m2220 -161 c56 -21 56 -22 53 -716 l-3 -636 -28 -24
-28 -24 -1094 0 -1093 0 -26 31 -26 31 0 636 c0 681 0 674 50 699 32 16 2153
19 2195 3z"/>
<path d="M2103 1902 c-10 -9 -85 -132 -167 -272 -82 -140 -151 -257 -153 -259
-2 -3 -63 55 -137 127 -146 144 -166 154 -220 111 -20 -15 -26 -29 -26 -57 0
-35 12 -49 173 -210 94 -95 179 -177 187 -182 25 -16 58 -11 84 13 14 12 107
162 207 332 196 333 207 358 160 396 -29 24 -86 25 -108 1z"/>
</g>
</svg>
