<?xml version="1.0" standalone="no"?>
<!DOCTYPE svg PUBLIC "-//W3C//DTD SVG 20010904//EN"
 "http://www.w3.org/TR/2001/REC-SVG-20010904/DTD/svg10.dtd">
<svg version="1.0" xmlns="http://www.w3.org/2000/svg"
 width="512.000000pt" height="512.000000pt" viewBox="0 0 512.000000 512.000000"
 preserveAspectRatio="xMidYMid meet">
<metadata>
Created by potrace 1.16, written by Peter Selinger 2001-2019
</metadata>
<g transform="translate(0.000000,512.000000) scale(0.100000,-0.100000)"
fill="#000000" stroke="none">
<path d="M2320 5105 c-158 -30 -373 -107 -422 -152 -27 -24 -24 -84 5 -111 32
-30 59 -28 162 17 103 44 209 75 310 91 98 16 294 13 395 -4 362 -64 685 -298
842 -610 40 -79 88 -206 88 -233 0 -10 -21 -13 -87 -13 l-88 0 -28 74 c-54
146 -184 314 -320 417 -370 279 -864 279 -1235 -1 -137 -103 -264 -269 -319
-416 l-28 -74 -87 0 c-67 0 -88 3 -88 13 0 26 48 154 87 232 48 95 112 183
199 276 73 78 82 112 39 154 -40 41 -77 34 -142 -27 -154 -146 -276 -356 -334
-575 -20 -74 -25 -83 -53 -95 -50 -20 -111 -89 -130 -146 -15 -44 -17 -89 -14
-339 3 -275 4 -290 25 -329 28 -53 91 -107 142 -122 21 -7 102 -12 183 -12
l145 0 12 -57 c26 -118 97 -278 173 -390 l29 -43 -385 0 c-361 0 -389 -1 -439
-20 -76 -29 -130 -79 -169 -158 l-33 -67 -3 -846 -3 -847 -74 -4 c-64 -3 -78
-7 -112 -34 -68 -56 -78 -83 -78 -219 0 -66 6 -138 12 -160 34 -110 131 -214
237 -254 57 -21 59 -21 1371 -21 l1314 0 20 26 c12 15 21 37 21 49 0 12 -9 34
-21 49 l-20 26 -1263 0 c-806 0 -1283 4 -1317 10 -68 13 -125 52 -163 112 -24
40 -29 61 -34 137 -3 65 -1 95 8 106 11 13 225 15 1909 15 1462 0 1900 -3
1909 -12 17 -17 15 -134 -3 -194 -19 -64 -63 -116 -122 -146 -47 -22 -57 -23
-350 -26 l-303 -4 -20 -25 c-26 -33 -25 -63 1 -97 l20 -26 319 0 c300 0 323 1
376 21 106 40 203 144 237 254 6 22 12 94 12 160 0 136 -10 163 -78 219 -34
27 -48 31 -113 34 l-74 4 0 807 c0 455 -4 831 -10 863 -5 32 -17 75 -27 95
-28 61 -102 127 -166 152 -55 20 -74 21 -442 21 l-385 0 33 53 c19 28 41 64
50 78 16 26 19 27 134 31 99 3 125 8 163 27 101 52 160 140 168 253 4 55 8 69
24 74 32 10 88 64 111 108 21 39 22 56 25 316 2 180 0 293 -8 327 -15 68 -59
127 -119 161 -47 25 -51 31 -66 90 -116 461 -481 815 -968 938 -89 23 -128 27
-297 30 -140 2 -216 -1 -270 -11z m440 -498 c136 -38 236 -89 346 -177 138
-110 260 -315 293 -492 l8 -48 -847 0 -847 0 8 48 c63 337 342 612 694 681 69
14 278 6 345 -12z m-1220 -1002 l0 -325 -124 0 c-118 0 -127 1 -153 24 l-28
24 -3 258 c-2 182 0 266 9 286 19 47 51 57 182 58 l117 0 0 -325z m2299 310
c49 -25 52 -49 49 -329 l-3 -258 -28 -24 c-26 -23 -35 -24 -153 -24 l-124 0 0
325 0 325 115 0 c82 0 124 -4 144 -15z m-422 -437 c-5 -262 -11 -306 -54 -445
l-25 -83 -304 0 c-205 0 -311 -4 -328 -11 -49 -23 -53 -114 -6 -139 11 -6 130
-10 285 -10 l266 0 -32 -46 c-17 -25 -45 -61 -61 -80 l-30 -34 -572 0 -571 0
-58 78 c-99 134 -167 283 -203 447 -11 48 -18 150 -21 323 l-6 252 863 0 863
0 -6 -252z m310 -400 c-11 -81 -72 -128 -165 -128 -39 0 -52 3 -49 13 3 6 13
45 23 85 l18 72 89 0 90 0 -6 -42z m411 -636 c71 -51 67 6 70 -919 l2 -833
-1650 0 -1650 0 0 818 c1 859 1 864 45 912 48 53 -45 50 1615 47 l1535 -2 33
-23z"/>
<path d="M2442 1902 c-72 -26 -139 -86 -181 -163 -34 -60 -36 -70 -36 -154 0
-77 4 -98 27 -147 32 -69 92 -129 166 -165 49 -24 69 -28 142 -28 73 0 93 4
142 28 72 35 134 97 167 167 22 47 26 69 26 145 0 83 -3 95 -35 153 -37 70
-89 120 -159 154 -64 31 -187 35 -259 10z m196 -161 c20 -10 45 -27 54 -38 25
-27 48 -87 48 -123 0 -73 -61 -149 -136 -170 -107 -30 -225 60 -224 172 0 39
30 106 56 129 59 51 138 63 202 30z"/>
</g>
</svg>
